<svg xmlns="http://www.w3.org/2000/svg" viewBox="0 0 404 574.29"><defs><style>.cls-1{fill:#a5c3df;}.cls-2{fill:#231816;}.cls-3{fill:#f4dab8;}.cls-4{fill:#913630;}.cls-5{fill:#fff;}.cls-6{fill:#d5d8dd;}.cls-7{fill:#ee8685;}.cls-8{fill:#599066;}.cls-9{fill:#eb7f93;}.cls-10{fill:#f7e833;}</style></defs><title>資產 3</title><g id="圖層_2" data-name="圖層 2"><g id="圖層_3" data-name="圖層 3"><path class="cls-1" d="M315,570.48c1.9-3.17.63-7,.63-10.77-1.27-40.53-5.7-90.57-31-123.5v.63c-2.54-1.9-6.34-3.8-9.5-5.7-43.7-23.43-106.4-15.83-150.1,5.7v1.27c18.36,34.2,15.83,83,8.23,120.33-1.27,4.43-1.9,10.77-3.8,14.57"/><path class="cls-2" d="M316.1,571.11c2.19-4.83.84-10.57.65-15.73-.22-6-.51-11.92-.91-17.87a344.87,344.87,0,0,0-4.17-35.82c-4.09-23.44-11.45-46.93-26-66.11a1.26,1.26,0,0,0-2.33.63v.63l1.88-1.08c-22.79-16-52.33-21-79.65-20.14a201.36,201.36,0,0,0-81.21,20.14,1.24,1.24,0,0,0-.62,1.08c0,4.05,3.54,8.67,5,12.41a120,120,0,0,1,4.9,16,170.91,170.91,0,0,1,4.07,36.63,253.82,253.82,0,0,1-2.16,35q-1.12,8.88-2.82,17.66c-1.12,5.84-2,12.38-4.38,17.85-.64,1.46,1.51,2.73,2.16,1.26,3.64-8.27,4.76-18.41,6.18-27.29A281.73,281.73,0,0,0,139.84,518c1.14-19.81.13-40.14-5.31-59.31a111.62,111.62,0,0,0-4.48-12.85c-.81-1.93-1.72-3.81-2.6-5.71-.22-.48-1.35-2.22-1.18-2.62a32.32,32.32,0,0,1,3.32-1.44,190.18,190.18,0,0,1,28.12-10.33A194.29,194.29,0,0,1,219,418.18c22.61,1,46.25,6.54,65,19.74a1.26,1.26,0,0,0,1.88-1.08v-.63l-2.33.63c13.77,18.19,21,40.22,25.16,62.44a319.88,319.88,0,0,1,4.42,35.18c.39,5.26.69,10.53.93,15.79q.17,4,.3,8c.13,3.71,1.17,8.08-.41,11.57-.66,1.46,1.49,2.73,2.16,1.27Z"/><path class="cls-3" d="M109.5,523c-10.38,0-23-2.61-30.06-10.93-4.9-5.8-5.54-18.17-15-19.47,4.71,0,9.43.46,14.14.18s7.93-1.89,12.16-3.5c5.85-2.22,16-5.2,22.08-2.86,8.07,3.33-4.75,6.18-9.5,8.08,6.65,2.85,16.15.95,22.32,4.27,10,6.18-3.8,7.6-9.5,7.6,3.33-.48,13.3,0,12.83,5.23-.48,4.75-10.93,1.42-14.25.95,4.75,1,16.6,2.1,10.43,7.8C122.78,522.7,112.83,523,109.5,523Z"/><path class="cls-2" d="M109.5,521.73C98.34,521.6,84,519,78.36,508.05c-3.43-6.59-5.16-15.05-13.58-16.68l-.33,2.46c5.85.05,12,.9,17.75-.3,5-1,9.7-3.57,14.66-5a42.63,42.63,0,0,1,8.59-1.66c1.41-.11,8.71-.32,8.53,1.92-.13,1.72-9.4,3.86-11,4.46a1.26,1.26,0,0,0,0,2.41c6.72,2.53,14.42.83,21,3.7,1.48.65,4.85,2,3.24,3.92-.58.69-2.51.91-3.35,1.09a38.72,38.72,0,0,1-7.68.71v2.5a22.22,22.22,0,0,1,5.09,0,16.77,16.77,0,0,1,2.91.54c1.19.37,5.66,1.87,2.15,4.53-2.15,1.64-8.72-1-11.24-1.37-1.57-.26-2.26,2.11-.67,2.41,2.41.46,14.28,1.67,9.89,5.72-3.18,2.92-10.73,2.25-14.78,2.28a1.25,1.25,0,0,0,0,2.5c5,0,16.57.73,18.45-5.69,1.72-5.88-9.51-6.58-12.89-7.22l-.67,2.41c3.79.64,14.67,4.48,15.79-1.82,1.2-6.7-9.87-7.28-14-6.81-1.56.18-1.65,2.52,0,2.5,3.21,0,15.46,0,14.17-5.79-.71-3.2-5.44-5-8.12-5.65-6.12-1.53-12.56-.64-18.54-2.89v2.41c3.36-1.28,10.39-2.17,12.46-5.54,1.93-3.17-2.28-4.9-4.78-5.45-6.44-1.43-13.76.78-19.78,2.94-4.31,1.56-8.33,3.5-13,3.88s-9.45-.14-14.14-.18c-1.38,0-1.75,2.18-.34,2.45,9.71,1.87,10,15.2,16.4,21.2,7.66,7.14,18.88,9.13,29,9.25A1.25,1.25,0,0,0,109.5,521.73Z"/><path class="cls-3" d="M293.33,502.55c-8.55-.47-14.73-8.07-23.28-9-4.75-.48-14.25-.95-18.52,1.42-9,5.7,1.9,6.17,6.65,8.08-5.23,1-20.9,1.42-20.9,7.59h13.3c-3.8,1.43-10.46,1-12.35,5.71,3.8,1.42,8.55.95,12.35.95-3.8,1.42-9,2.84-10.93,6.65,9,3.32,26.13,0,35.15-1.9,5.23-1.43,13.3-3.33,16.63-8.08,2.37-3.33,1.9-9,2.85-11.4"/><path class="cls-2" d="M293.33,501.3c-8-.81-13.79-7.2-21.54-8.76-5.6-1.13-12.53-1.28-18.06.25-2.57.71-8,3.32-6.69,6.84,1.28,3.3,8,3.59,10.8,4.6v-2.41c-5.9,1-21,.42-21.81,8.8a1.25,1.25,0,0,0,1.25,1.25h13.3l-.34-2.45c-4.78,1.54-10.48,1.21-13.09,6.27a1.27,1.27,0,0,0,.74,1.84c4.16,1.28,8.38,1.05,12.69,1l-.34-2.46c-4.44,1.62-9.05,3-11.67,7.22a1.27,1.27,0,0,0,.75,1.84c11,3.65,24.81.72,35.81-1.9,5-1.19,10.56-2.66,14.68-5.87,5-3.87,4-9,5.67-14.48.47-1.54-1.94-2.2-2.41-.66-1.69,5.52-.65,10.7-6.35,14.21-4.21,2.59-9.58,3.85-14.38,4.83-10.16,2.07-22.22,4.81-32.36,1.46l.75,1.84c2.23-3.59,6.44-4.71,10.18-6.08a1.25,1.25,0,0,0-.33-2.45c-4.09,0-8.05.31-12-.91l.74,1.84c2.17-4.21,7.64-3.85,11.61-5.13a1.26,1.26,0,0,0-.33-2.46h-13.3l1.25,1.25c.57-5.84,15.82-5.7,20-6.39,1.33-.22,1-2,0-2.41-1.5-.54-3-.91-4.56-1.33-2.4-.65-5.48-1-2.78-3.74,3.32-3.37,11.27-2.48,15.54-2.24,9.94.57,16.89,8.3,26.62,9.29,1.59.16,1.58-2.34,0-2.5Z"/><path class="cls-1" d="M272.58,447.61c17.74-1.27,41.17,3.8,56.37,13.93,31.67,20.9-33.57,29.13-47.5,31.67-1.9,0-3.8.63-6.33.63,0-1.27,5.7,26.6,5.7,27.87,1.9-1.9,17.26-2.38,21.05-3,26.61-5.7,51.78-16,68.88-38.79,20.27-27.87-7.6-50-32.3-59.54-48.13-18.36-103.87-22.16-155.17-20.9-28.5.64-57,8.24-85.5,12.67S44.58,421,20.52,439.37c-28.5,20.9-26,52.57,8.23,64,14.57,5.07,34.2,8.87,50,8.23,1.9-3.8,8.87-19.63,12-22.16h-7c-9.5-.64-34.2-2.54-39.27-12-8.23-13.3,14.57-24.06,24.7-27.23,16.47-5.7,46.87-8.87,62.07,1.27"/><path class="cls-2" d="M272.58,448.86a99.83,99.83,0,0,1,40.07,6,69,69,0,0,1,17.41,8.95c2.5,1.85,6,4.62,6.2,8,.36,5.88-8.8,9.15-13.08,10.75a146.75,146.75,0,0,1-23.64,6.18c-8,1.56-16.28,3.35-24.42,3.8l1.2,1.58v0l-2.28.3c1.66,3,2.05,9.46,2.81,13.21.94,4.58,2.38,9.4,2.71,14.07.06.83,1.06,1.69,1.88,1.08,2.47-1.87,7.4-1.65,10.32-1.92,3.29-.3,6.64-.37,9.9-.89,10.18-1.6,20.51-5.05,30-9,17.86-7.52,38.53-21.16,45.51-40.21,6.52-17.76-6.23-33.18-20.34-42.43-19.09-12.5-43.24-18.1-65.35-22.44-24.64-4.83-49.76-7-74.84-7.66-26.79-.68-52.89.7-79.28,5.49-13.3,2.41-26.54,5.13-39.9,7.24-11.75,1.86-23.52,3.73-35,6.86C42.57,423.2,20.49,433.19,7.72,450c-10.51,13.85-10.86,32.28,2.52,44.38,8,7.23,18.49,10.63,28.72,13.34,12.93,3.42,26.43,5.49,39.82,5.07a1.23,1.23,0,0,0,1.08-.62c1.8-3.65,3.46-7.36,5.27-11s3.57-8.15,6.57-10.9a1.26,1.26,0,0,0-.88-2.13c-10.92,0-22.09-.75-32.63-3.84-5.49-1.6-12-4.14-13.75-10.23C42.51,467.33,49,461.93,54,458.66c10-6.56,22.1-9.89,33.84-11.53,13.89-1.94,30.62-2.46,42.9,5.36,1.36.86,2.62-1.3,1.26-2.16-10.3-6.56-23.57-7.29-35.43-6.57a102.52,102.52,0,0,0-33.85,7.51c-7.79,3.32-19,8.92-20.89,18.13-2,9.54,7.56,14.85,15.15,17.16,10.88,3.32,22.55,4.1,33.86,4.1l-.89-2.14c-4.86,4.46-7.46,12.35-10.21,18.18-.33.71-1,3.3-1.77,3.75-1.12.69-5.59-.09-7.09-.15a138.23,138.23,0,0,1-19.76-2.37c-17.85-3.37-43-9.29-48.13-29.8s14.08-36.21,29.56-45.35C52.59,421,75.44,416.93,98.12,413.34c26.77-4.23,53.25-11.14,80.41-12.45a520,520,0,0,1,73.73,1.89c25.19,2.38,50.29,6.84,74.37,14.73,17.94,5.88,41.35,15.24,48.32,34.72,4.54,12.68-2.21,24.33-10.66,33.49A93.71,93.71,0,0,1,334.53,507c-10.46,4.84-22.37,9-33.83,10.65-4.07.57-8.22.63-12.31,1.1-2.56.29-6.06.3-8.2,1.92l1.88,1.08c-.34-4.91-1.82-9.93-2.8-14.73-.84-4.14-1-10.07-3.06-13.81a1.26,1.26,0,0,0-2.29.3v0a1.26,1.26,0,0,0,1.21,1.58c8.22-.45,16.56-2.24,24.64-3.8,9-1.73,18.11-3.71,26.57-7.25,4.8-2,12.09-5.38,12.43-11.47.44-8-11-13.62-16.73-16.42a99.93,99.93,0,0,0-49.45-9.79c-1.59.1-1.61,2.6,0,2.5Z"/><path class="cls-4" d="M196,452.2a393.13,393.13,0,0,0,1.9,40.85c1.43,14.73,7.6,33.25,6.65,46.55l-.47.48c-5.23,6.17-13.3,13.29-21.38,19.95.47,0-.47.47,0,0h-.47c-5.23-4.75-11.88-13.78-18.06-19,.48-17.58,4.75-36.1,7.13-53.2,1.9-11.4,2.37-26.13,5.7-36.58"/><path class="cls-2" d="M194.7,452.2c0,20.56,1.25,40.75,5.34,60.92.92,4.54,1.85,9.09,2.51,13.68.44,3.13,1.9,9.28.71,12.27-.55,1.39-2.66,3-3.69,4-1.75,1.81-3.56,3.56-5.4,5.27-4,3.73-8.19,7.26-12.4,10.75a1.26,1.26,0,0,0,0,1.77l.1.1.25-2-.21.11,1.71,1.71.11-.21a1.26,1.26,0,0,0-1.08-1.88c-1.66,0-5.92-6.31-7.18-7.73-1.45-1.65-2.9-3.3-4.38-4.91s-3.82-3.2-5-5c-2.19-3.46.06-11.92.53-15.71.72-5.79,1.65-11.54,2.61-17.29,1.53-9.08,3.13-18.15,4.24-27.29,1.2-9.79,1.82-19.74,4.68-29.23a1.26,1.26,0,0,0-2.42-.66c-2.92,9.69-3.52,19.89-4.76,29.89-1.48,12-3.82,23.92-5.64,35.89-.82,5.34-1.53,10.7-2,16.08-.18,2.19-1.27,6.39-.45,8.41.46,1.14,1.65,1.86,2.54,2.71,3.9,3.72,7.31,7.92,10.92,11.91,1.5,1.67,3.8,5.47,6.29,5.47l-1.08-1.89-.1.22a1.26,1.26,0,0,0,1.71,1.71l.21-.11a1.26,1.26,0,0,0,.25-2l-.11-.11v1.77c4.22-3.49,8.4-7,12.41-10.75,2.88-2.68,7.27-6,9.21-9.44,1.29-2.31.73-5.53.54-8.16a122.33,122.33,0,0,0-1.95-13.6c-1.94-10.27-4.19-20.37-5.11-30.81-1-12-1.41-23.95-1.43-35.95a1.25,1.25,0,0,0-2.5,0Z"/><path class="cls-4" d="M167.45,410.87c0,6.66,1.9,13.78,3.33,20.43.95,5.23.95,10.45,2.84,15.2,2.38,6.65,1.91,5.7,9,5.23,3.33,0,10.45.47,13.3-1,3.33-1.91,5.23-10,7.13-13.78,3.32-7.6,8.54-19,9-27.55l-.48.48"/><path class="cls-2" d="M166.2,410.87c.14,6.21,1.48,12.21,2.82,18.25,1.41,6.36,1.57,12.78,3.84,18.94.76,2.07,1.38,4.31,3.64,5.09,2.94,1,7.78-.11,10.9-.1s7.51.28,10.13-1.89c3-2.53,4.12-7.38,5.52-10.9,4-10.08,9.39-19.81,10.3-30.81a1.26,1.26,0,0,0-2.13-.88l-.48.47a1.25,1.25,0,0,0,1.77,1.77l.47-.48-2.13-.88c-.78,9.43-5.1,18.37-8.85,26.92-1.35,3.06-2.33,6.3-3.79,9.3-2.31,4.76-6,4.89-10.81,4.88-2.83,0-6.27.64-9,.25-3.23-.45-4.11-5.84-4.73-8.69-1-4.79-1.34-9.7-2.4-14.5a86.29,86.29,0,0,1-2.54-16.74,1.25,1.25,0,0,0-2.5,0Z"/><path class="cls-1" d="M129.93,405.18c2.85,1.9,4.75,5.69,7.12,8.55,6.18,9,14.73,16.62,22.8,24.22,8.08-6.17,15.2-13.77,23.27-19.95"/><path class="cls-2" d="M129,406.06c5.26,4.07,8.63,11.06,13,16.06,5.23,6,11.13,11.29,16.91,16.71a1.27,1.27,0,0,0,1.76,0c8.07-6.29,15.21-13.65,23.28-19.95,1.27-1-.51-2.74-1.77-1.76-8.07,6.29-15.21,13.66-23.27,19.95h1.76c-5.77-5.43-11.67-10.76-16.9-16.72-4.42-5-7.69-11.93-13-16.06-1.26-1-3,.78-1.77,1.77Z"/><path class="cls-1" d="M183.12,419c-3.79-1.9,2.86,1.9,3.81,2.38,9.5,5.7,19.94,10.45,28.5,17.57,18.52-9.5,39.9-22.32,54.62-36.57"/><path class="cls-2" d="M183.76,417.87c-.79-.38-1.54-.93-2.41-.5a1.27,1.27,0,0,0,0,2.16c10.57,7.55,23,12,33.19,20.25a1.3,1.3,0,0,0,1.52.2c19.53-10.07,38.9-21.52,54.87-36.77,1.17-1.11-.6-2.88-1.76-1.77C255.32,414.66,238.82,424.94,222,434c-1.46.79-4.17,3-5.81,3.07s-3.07-1.55-4.35-2.47a131.25,131.25,0,0,0-12-7.42c-5.69-3.2-11.91-6-17.24-9.82v2.16c-1.1,0-1.14.17-.12.5,1.44.7,2.71-1.45,1.27-2.16Z"/><path class="cls-3" d="M370.75,226.58c1.77-26.39-4.75-57-18.05-75.05-27.55-38-69.35-55.1-115.9-52.25C148.45,104,82,196.18,74.35,277.87c-3.8,40.86,5.7,81.71,35.15,111.16,31.35,31.34,79.8,33.25,119.7,24.7,35.15-7.61,76.95-20,103.55-45.61,20.43-19.7,34.53-42.9,39.37-71.12,1.22-7.07.84-14.57,2.23-21.53,1.54-7.71,5.23-6.36,11.87-9.29,12-5.28,17.9-17.32,16.23-30.1-1-7.7-5.73-14.57-17.25-14.66-3.93,0-14.25,4.34-14.45,7.06"/><path class="cls-2" d="M372,226.58c1.16-19.05-1.32-38.76-8.16-56.63-6.13-16-17-29.64-29.84-40.87-26.35-23.07-61-32.9-95.67-31.14C170.69,101.38,116.89,153.69,90.54,213c-13.66,30.73-20.82,64.82-17.4,98.48,3.65,36,20.92,72.61,52.71,91.91,29.9,18.15,67.52,18.78,100.92,12.09C262.05,408.44,300,397.55,328,374a137.62,137.62,0,0,0,34.56-43.74,119.46,119.46,0,0,0,9.11-25.1A94.43,94.43,0,0,0,374,291.63c.52-5.76-.09-12.66,2.16-18.08,1.52-3.69,4.61-4,8-5.24a30.75,30.75,0,0,0,10-5.7,29.08,29.08,0,0,0,9.54-18.19c.81-6.32.07-13.65-4.32-18.61-4.08-4.61-11.16-6.57-17.11-5.23-3.82.86-11.53,3.18-12.74,7.56a1.26,1.26,0,0,0,2.42.67c.75-2.73,6.61-4.5,8.87-5.22a16.84,16.84,0,0,1,13.1,1c7.51,4.05,8.5,13.92,7,21.46a26.46,26.46,0,0,1-16.22,19.39c-4.46,1.78-8.95,2.15-10.86,7.17-3.26,8.59-1.81,19-3.65,28a117.91,117.91,0,0,1-8.4,25.62,136.67,136.67,0,0,1-31,42c-26,24.29-62.24,35.26-96.16,43-32,7.29-67.3,9.23-97.84-4.85-33.22-15.33-53.49-49.14-59.68-84.27-5.67-32.2-.67-65.69,10.78-96.09,21.41-56.83,68-110.39,129.63-123,32.05-6.57,67.28-2.22,95.76,14.25a124.63,124.63,0,0,1,37.44,33.65c10.45,14.08,15.61,31.45,17.87,48.66a141.78,141.78,0,0,1,.92,27c-.1,1.6,2.4,1.6,2.5,0Z"/><path class="cls-5" d="M204.18,217.08c-18.12-5.26-31.43,28.13-19.63,39.26C207,277.56,245.67,229.11,204.18,217.08Z"/><path class="cls-2" d="M204.52,215.87c-20.29-5.16-34.77,30.22-19.43,42.59,14.88,12,36.5-2.77,38.55-19.61,1.5-12.28-8.51-19.74-19.12-23-1.55-.47-2.2,1.94-.67,2.41,8.37,2.56,17.06,7.8,17.44,17.51.28,7.22-4,14.14-9.3,18.7-5.72,4.89-13.81,7.66-21.05,4.6-9.21-3.87-10.91-13.37-8.66-22.26,2.4-9.52,10.21-21.44,21.57-18.55A1.25,1.25,0,0,0,204.52,215.87Z"/><path class="cls-5" d="M125,220.24c-15.45,1.33-24.7,31.67-8.87,39.27C147.82,274.71,161.75,217.08,125,220.24Z"/><path class="cls-2" d="M125,219c-10.42,1.28-16.66,12-18,21.57-1.6,11.08,3.87,20,15,22.29,17,3.46,29.8-15.11,25.29-30.68-2.92-10.09-12.5-13.88-22.29-13.18-1.6.12-1.61,2.62,0,2.5,7.41-.53,15.2,1.33,18.78,8.49,2.92,5.84,2.24,13.12-.42,18.92-2.76,6-8,11-14.8,11.79-9.3,1.14-18.42-4.43-19.32-14.12s4.86-23.74,15.76-25.08C126.59,221.3,126.61,218.8,125,219Z"/><path class="cls-2" d="M127.79,235.84c-3.56-.48-6.41,4.75-2.85,6.89,4.75,2.85,8.31-6.18,2.14-6.65Z"/><path class="cls-2" d="M127.79,234.59a5.5,5.5,0,0,0-5.74,5.48,4.76,4.76,0,0,0,5.76,4.33,5.39,5.39,0,0,0,3.8-5c.12-2.76-2-4.35-4.53-4.61l.33,2.45.71-.24c1.52-.5.87-2.92-.66-2.41l-.72.24a1.26,1.26,0,0,0,.34,2.46c1.18.12,2.09.75,2,2a3,3,0,0,1-1.63,2.55,2.23,2.23,0,0,1-2.93-1.82,3,3,0,0,1,3.24-3C129.39,237.23,129.38,234.73,127.79,234.59Z"/><path class="cls-2" d="M198.09,235.12c-2.61-1.42-5.7,3.57-2.85,5.71,5,4,8.79-7.6.71-5.71Z"/><path class="cls-2" d="M198.72,234.05c-2.53-1.22-5.06.74-5.71,3.24a4.55,4.55,0,0,0,3.51,5.55c3.61.78,6.35-3.7,5-6.83-1-2.38-3.7-2.58-5.92-2.09a1.25,1.25,0,0,0,.33,2.45h2.14a1.25,1.25,0,0,0,0-2.5H196l.33,2.46a4,4,0,0,1,2.33,0,1.14,1.14,0,0,1,.71.87,3.12,3.12,0,0,1-.8,2.67,1.64,1.64,0,0,1-1,.56,2.31,2.31,0,0,1-1.58-.66,1.94,1.94,0,0,1-.27-2.4c.29-.59,1.05-1.53,1.82-1.17C198.9,236.9,200.17,234.74,198.72,234.05Z"/><path class="cls-2" d="M124.94,202.29c-15.61-.5-26.61,12.13-32.35,25.41-6.06,14-7.25,29.53,3.59,41.6,11.69,13,28.77,13.52,42.83,4.23C152,265,160.17,251.26,158.2,235.45c-2.27-18.28-14.19-32.54-33.26-33.16-1.61,0-1.61,2.45,0,2.5,15.58.51,25.63,10.42,29.59,25,3.93,14.41-.68,28.49-12.06,38.07-12.41,10.44-28.64,13.79-41.71,2.45-11.44-9.94-12.19-24.08-7.47-37.56,4.85-13.83,15.48-28.48,31.65-28,1.61.05,1.6-2.45,0-2.5Z"/><path class="cls-2" d="M206.31,193.55c-18.32,3.24-32,18.19-35.56,36.1-1.66,8.42-2.29,17.82.11,26.15s9.28,14.47,16.56,18.92c15.38,9.42,35.77,5.3,49.67-5.12,15-11.29,20.83-29.85,17.06-48a32.86,32.86,0,0,0-16.09-22.45c-10.18-6-20.18-7.21-31.75-5.56-1.59.22-.92,2.63.66,2.41,10.11-1.44,18.8-.57,27.94,4.27,7.81,4.13,13.69,10.28,16.09,18.9,4.56,16.44.57,34.36-12.28,45.92-11.49,10.33-30.65,16.39-45.36,10-7.72-3.38-16.44-9.79-19.47-17.94-2.5-6.74-2.3-14.34-1.53-21.39,2.11-19.31,14.79-36.22,34.61-39.72,1.58-.28.91-2.69-.66-2.41Z"/><path class="cls-2" d="M85.83,228.37c.85.56,1.7,1.13,2.53,1.72.36.26.72.52,1.07.79.15.12.3.24.44.37s.43.45.26.23c1,1.28,3.12,0,2.16-1.26-1.26-1.7-3.46-2.85-5.2-4-1.34-.9-2.59,1.27-1.26,2.16Z"/><path class="cls-2" d="M158,237.09c3.81,0,7.6-.44,11.4-.48a1.25,1.25,0,0,0,0-2.5c-3.8,0-7.59.45-11.4.48a1.25,1.25,0,0,0,0,2.5Z"/><path class="cls-2" d="M254.53,230.74c3.77-1.88,8.77-2.26,12.82-3.32,4.83-1.27,9.66-2.33,14.53-3.36,9.93-2.1,19.72-5.25,30-5v-2.5h-.24a1.25,1.25,0,0,0,0,2.5h.24a1.25,1.25,0,0,0,0-2.5c-10.47-.24-20.49,3-30.63,5.11-5.17,1.09-10.28,2.24-15.39,3.58-4.07,1.06-8.79,1.46-12.56,3.35-1.44.72-.17,2.88,1.26,2.16Z"/><path class="cls-6" d="M215,174.33c-8.08-3.8-27.08,12.82-9,12.35,4.75,0,17.1-1.9,16.62-7.6-.47-5.23-8.55-4.75-12.82-4.75"/><path class="cls-2" d="M215.28,173.12c-4.36-1.82-9.65.61-13.16,3.21-2.42,1.8-6.44,5.53-4.5,8.93,2.3,4,9.8,2.77,13.48,2.21,4.19-.64,11.84-2.14,12.64-7.34,1.14-7.37-9.46-7.07-14-7a1.25,1.25,0,0,0,0,2.5c2.7,0,5.57-.21,8.2.53,3.12.87,4.6,3.74,1.66,5.94-3.91,2.92-10.27,3.52-15,3.37-1.57,0-4.89-.07-4.93-2.25,0-1.55,2-3.28,3.08-4.16,3-2.53,7.92-5.13,11.89-3.48,1.48.62,2.13-1.8.66-2.41Z"/><path class="cls-6" d="M121.38,183.35c-8.08,0-18.53,11.88-3.8,11.88,5.22,0,18-1.43,13.77-9-2.37-4.27-11.4-3.8-15.2-1.9"/><path class="cls-2" d="M121.38,182.1a14.63,14.63,0,0,0-11.29,6.18c-2.2,3.35-.86,6.64,3,7.7,5.76,1.58,26.31-.72,19-10.9-3.4-4.77-11.94-4-16.59-1.86-1.46.67-.19,2.83,1.26,2.16,3.72-1.71,13-2.64,14.08,2.88.89,4.45-7.07,5.29-10,5.56-2.33.21-10.9.94-9.2-3.33,1.37-3.45,6.19-5.78,9.68-5.89,1.6,0,1.61-2.55,0-2.5Z"/><path class="cls-6" d="M106.73,181.91c-10.93,2.38-22.8,13.78-26.6,25.18-2.38,6.17-2.85,25.65,8.55,21.37,8.55-3.32,5.08-15.84,5.08-23l1.81-3.07"/><path class="cls-2" d="M106.4,180.71c-17,4.23-35.49,26.32-27.35,44.64,2.68,6,10.14,6.45,14.16,1.25,2.64-3.42,2.63-8.23,2.4-12.33-.12-2.26-.56-4.55-.54-6.81,0-2,.54-2.66,1.58-4.41a1.25,1.25,0,0,0-2.16-1.27c-1,1.66-1.84,2.79-2,4.67-.22,3.35.66,6.83.68,10.2,0,4.38-.85,9.65-5.83,10.92-4.09,1.05-6.05-2.27-6.83-5.77-3.75-16.87,10.59-34.71,26.52-38.68a1.25,1.25,0,0,0-.66-2.41Z"/><path class="cls-6" d="M361.88,168.31c-6.65-2.53-19.95,10.45-24.7,14.25-10.45,9.18-27.23,22.8-31,36.73-4.12,14.57,12.67,24.39,25.33,22.8,13.3-1.58,29.14-7.28,39.27-16.47,9.5-8.54,5.38-22.79,3.8-33.88-.95-5.7-1.9-12-4.43-17.1-2.85-6-6.34-6-12-7"/><path class="cls-2" d="M362.22,167.1c-5.77-1.66-11.93,3.22-16.17,6.48-5.72,4.38-11.12,9.24-16.52,14-10.23,9-30,25.48-24.35,41.44,5.17,14.59,22.83,15.68,35.45,12.69,15.2-3.6,36.4-11.9,37.37-30,.52-9.62-1.76-20.59-4.06-29.87-1-4.15-2.48-9.17-5.8-12.12-2.67-2.37-6.35-2.7-9.72-3.24-1.58-.25-2.26,2.16-.67,2.41,2.9.47,6.26.66,8.63,2.6,3.21,2.63,4.44,8,5.34,11.81a169.11,169.11,0,0,1,3.61,22.14c.79,8.46-.76,15.63-7.61,21.11A66.84,66.84,0,0,1,346,237.64c-12.37,3.92-30.18,6.32-37.62-7.53s11.14-30.1,20.12-38.25c4.74-4.3,9.61-8.47,14.5-12.6,4.26-3.61,12.3-11.55,18.55-9.75a1.25,1.25,0,0,0,.67-2.41Z"/><path class="cls-2" d="M151.93,160.38c8.39-.72,16.71-2,25-3.22,1.58-.22.91-2.63-.67-2.41-8.1,1.17-16.2,2.42-24.37,3.13-1.59.13-1.6,2.63,0,2.5Z"/><path class="cls-2" d="M150.68,174.26a86.84,86.84,0,0,1,24-3.75,1.25,1.25,0,0,0,0-2.5A88.91,88.91,0,0,0,150,171.85c-1.54.46-.88,2.88.66,2.41Z"/><path class="cls-2" d="M150.68,186.3c9.7-1.62,19.24-3.92,29.12-4.07a1.25,1.25,0,0,0,0-2.5c-10.09.15-19.87,2.5-29.78,4.16-1.59.26-.91,2.67.66,2.41Z"/><path class="cls-2" d="M149.07,282.62c.49-6.7,6.36-21.38,15.48-18,6.25,2.29,7.83,12.27,8.3,18,.13,1.6,2.63,1.61,2.5,0-.59-7.23-3-19.85-12-20.84-10.29-1.12-16.18,12.58-16.78,20.84-.12,1.61,2.38,1.6,2.5,0Z"/><path class="cls-2" d="M156.11,273.46a14.84,14.84,0,0,1,.27,3.46,1.25,1.25,0,0,0,2.5,0,17.89,17.89,0,0,0-.36-4.13c-.36-1.57-2.77-.9-2.41.67Z"/><path class="cls-2" d="M163.67,273.12v3.2a1.25,1.25,0,0,0,2.5,0v0a1.25,1.25,0,0,0-2.5,0v0a1.25,1.25,0,0,0,2.5,0v-3.2a1.25,1.25,0,0,0-2.5,0Z"/><path class="cls-7" d="M145.12,316.35c4.28-3.32,27.56-10.45,29-6.65.48.95.48,3.8,1,5.7,1.9,9,8.07,53.68-10.45,48.45-14.73-3.8-19.95-33.73-19.48-46.07"/><path class="cls-2" d="M145.76,317.43c3.33-2.39,7.66-3.62,11.54-4.81s10.2-3.77,14.24-2.74c2.38.62,2.56,7,3,9.67.66,4.08,1.13,8.2,1.43,12.32.62,8.31,1.38,18.38-2.18,26.17-4.91,10.73-15.82,1.42-19.54-5.24-5.71-10.22-8.2-23.37-7.87-35,0-1.61-2.45-1.61-2.5,0-.34,12.09,2.28,25.68,8.22,36.29,3.61,6.44,13.19,16,20.88,9.39,7-6,6.1-19.59,5.73-27.75-.24-5.07-.76-10.13-1.5-15.15-.24-1.63-.53-3.26-.82-4.89s-.2-5.63-1.56-7.14c-2.6-2.88-9.9-.51-12.89.22-5.72,1.38-12.56,3-17.44,6.52-1.29.93-.05,3.1,1.27,2.16Z"/><path class="cls-6" d="M221.6,330.44l2.53-1.27c-6.33,9.18-29.45,8.55-38.95,6.65-10.45-2.22-22.16-9.5-26.91-19.32v-.31c-4.44,9.5-14.25,22.16-24.7,25.33-12.67,4.12-21.54-3.17-31.35-9.82a29.53,29.53,0,0,0,5.38-.31c17.42-4.12,10.13-26.92,21.53-37.05,10.14-8.55,23.44-7,32.3,2.53l.64.63c4.43-8.55,18.68-13.93,27.23-9.5,6,3.49,11.4,8.87,12.67,16.15,1.26,7-.32,14.25,4.11,20.59s12.35,9.81,18,4.43"/><path class="cls-2" d="M222.23,331.52l2.53-1.27-1.71-1.71c-6.29,8.3-21.65,7.66-30.88,6.94A43.76,43.76,0,0,1,175.48,331a41.79,41.79,0,0,1-9.19-6.2c-2-1.78-6.77-5.89-6.77-8.65,0-1.18-1.78-1.78-2.33-.63-4.54,9.39-11.81,19.49-21.62,23.84-12.44,5.52-22.78-2-32.72-8.78l-.63,2.33c6.11,0,11.58-1.47,15.29-6.65,3.44-4.79,4.3-10.93,5.6-16.54,1.75-7.53,4.33-14.09,11.73-17.68,9.65-4.67,19.26-.79,26.34,6.31a1.27,1.27,0,0,0,2-.26c4.13-7.22,14.25-12.05,22.52-10.1,10.48,2.46,15.11,13,15.67,22.61.42,7.42,1.66,14.36,7.88,19.2,5,3.86,10.88,4.29,15.8.21,1.24-1-.54-2.78-1.77-1.76-5.2,4.31-11.49,1.47-15.28-3.19-4-5-3.82-10.87-4.28-16.9-.6-7.79-3.75-14-10-18.76-10.33-7.91-26.31-3.74-32.7,7.43l2-.25c-5.27-5.28-11.55-9.16-19.25-9.12-7.15,0-14.66,3.61-18.6,9.68-7.94,12.25-2.9,33.15-22.88,33.27a1.26,1.26,0,0,0-.63,2.33c10.45,7.13,21.15,14.53,34.18,9.27,10.7-4.33,18.71-15.16,23.58-25.23l-2.33-.63c0,2.48,2.82,5.43,4.36,7.21a40.43,40.43,0,0,0,9.5,7.94,45.91,45.91,0,0,0,19.7,6.5c10.67,1.06,27.36,1.55,34.63-8,.83-1.08-.71-2.21-1.71-1.71L221,329.36c-1.44.72-.17,2.88,1.26,2.16Z"/><path class="cls-2" d="M374,252.16c3.83-4.12,10-5.93,14.95-8.36,1.44-.7.17-2.86-1.27-2.15-5.16,2.53-11.44,4.43-15.45,8.74-1.09,1.18.67,3,1.77,1.77Z"/><path class="cls-8" d="M202.28,104.34c1.9-11.71,11.09-27.55,22.17-32.61,2.22,19-1.27,39.58-21.85,47.18"/><path class="cls-2" d="M203.49,104.67c2.26-12.44,9.92-26.11,21.59-31.87l-1.88-1.07c2,18.51-1.7,38.46-20.93,46-1.48.58-.84,3,.66,2.41,20.31-7.93,24.94-28.55,22.77-48.38a1.27,1.27,0,0,0-1.88-1.08c-12.2,6-20.38,20.33-22.74,33.36-.29,1.57,2.12,2.25,2.41.66Z"/><path class="cls-2" d="M192.85,53.53c6.27,21.72,8,44.6,8,67.12a1.25,1.25,0,0,0,2.5,0c-.05-22.73-1.79-45.86-8.11-67.78a1.25,1.25,0,0,0-2.41.66Z"/><path class="cls-9" d="M197.85,25.18c4.75-4.28,12.83-9.5,19.48-3.8,10.45,9.5-.48,23.27-12.35,22.32v.48c5.22,0,13.77,6.17,14.72,11.87,1.9,13.78-20.9,9-25.17,1l.47.48c.95,8.55-10,22.8-17.57,11.87-2.85-3.8-.48-15.2,2.85-18v.48c-25.66,0-14.73-29.45.47-24.7l-.47-.48C177,19,179.8,0,191.68,1.43c11.4,1.42,9.5,16.62,6.17,22.32"/><path class="cls-2" d="M198.73,26.06c3.18-2.77,7.22-5.8,11.65-5.93,5.28-.17,9.93,4.79,9.89,10,0,7.77-8.35,12.58-15.29,12.33a1.26,1.26,0,0,0-1.25,1.25v.48A1.28,1.28,0,0,0,205,45.43c5.14.35,11.69,4.84,13.25,9.88,1.24,4-.92,7.22-4.87,8-5.87,1.18-14.61-1.64-17.76-7l-2,1.51c1.43,1.43-1.38,6.94-2.16,8.27-1.72,2.89-4.77,6.35-8.5,5.79-8.51-1.28-6.09-15.44-1.82-19.76L179,51.3v.48l1.25-1.25c-7.67-.16-15.85-3.9-13.8-12.9,1.44-6.32,7.39-11.16,13.94-9.35a1.26,1.26,0,0,0,1.21-2.09c-2.24-2.24-1.52-8.4-1.1-11.2.67-4.42,2.51-9.93,7-11.79,12.41-5.14,13,13,9.25,19.92-.77,1.41,1.39,2.68,2.16,1.26,4.7-8.64,3.51-26.93-10.52-24.08-5.66,1.15-8.67,6.81-9.89,12-1,4.18-2.07,12.25,1.35,15.67l1.21-2.09c-8.11-2.24-15.66,3.83-17.16,11.79-2,10.42,7.33,15.19,16.36,15.37a1.28,1.28,0,0,0,1.25-1.25V51.3a1.26,1.26,0,0,0-2.14-.88c-5.71,5.77-7.51,22.44,3.26,24,4.56.68,8.44-3,10.68-6.57,1.66-2.64,4.81-9.05,2.08-11.78a1.25,1.25,0,0,0-2,1.51c4.06,6.87,17.38,11.47,24.35,6.59,10.67-7.46-4.68-20.73-12.82-21.29l1.25,1.25V43.7L205,45c9.06.33,19.77-7.28,17.52-17.4-1.08-4.9-5.33-9.2-10.38-9.83-5.77-.73-11,3-15.15,6.57-1.22,1.06.56,2.82,1.76,1.77Z"/><path class="cls-10" d="M190.73,32.3c-5.23,3.33-3.8,19,4.27,14.25,6.65-3.32,0-19.47-5.7-12.35"/><path class="cls-2" d="M190.09,31.22c-6.43,4.53-4,21.9,5.54,16.41,8.27-4.79-.34-22.27-7.21-14.31-1,1.21.71,3,1.76,1.76,2.55-2.94,4.82-.09,5.76,2.66s1,6.57-2.08,8c-6,2.76-6.09-9.84-2.5-12.37,1.3-.92,0-3.09-1.27-2.16Z"/></g></g></svg>