<svg xmlns="http://www.w3.org/2000/svg" viewBox="0 0 503.16 758.34"><defs><style>.cls-1{fill:#947a56;}.cls-2{fill:#231816;}.cls-3{fill:#82888b;}.cls-4{fill:#f1d9b8;}.cls-5{fill:#231815;}.cls-6{fill:#a5c3df;}.cls-7{fill:#913630;}.cls-8{fill:#fff;}.cls-9{fill:#d5d8dd;}.cls-10{fill:#599066;}.cls-11{fill:#eb7f93;}.cls-12{fill:#f7e833;}</style></defs><title>資產 2</title><g id="圖層_2" data-name="圖層 2"><g id="圖層_2-2" data-name="圖層 2"><path class="cls-1" d="M64.57,699c-18,5-29-6-45.5-11-10.5-3.5-23-4-15.5,9.5A240.58,240.58,0,0,0,22.07,725c7,9.5,13.5,17,25.5,12,7-2.5,19.5-9.5,23.5-15.5"/><path class="cls-2" d="M64.24,697.84c-15.1,3.82-26.79-4.32-40.33-9.46-5.14-2-19.24-7.58-23.18-.51-2,3.5.46,8,2.17,11A199.44,199.44,0,0,0,15.8,718.7c5.85,8.09,13.15,21.24,24.66,21.19,6,0,12.37-3.47,17.51-6.37s10.61-6.42,14.18-11.35c.95-1.3-1.22-2.55-2.16-1.26C66,726.37,59.51,730,53.61,733s-13,6.29-19.51,2.69-10.85-11-15.1-16.84A223.36,223.36,0,0,1,5.88,699.06c-1.4-2.41-4.64-6.93-3-9.93,1.25-2.28,5.05-2,7.2-1.85,6.62.58,13.24,3.37,19.21,6.06,11.75,5.3,22.49,10.23,35.6,6.91a1.25,1.25,0,0,0-.66-2.41Z"/><path class="cls-1" d="M271.07,726.54c1,5,2,9.5,3,14.5,2,13-1.5,16-14.5,16-17,0-43-7.5-57.5-16.5-5.5-3-12-8.5-6.5-14,2.5-3,12-2.5,16-3,8.5-1,18-4,26.5-2"/><path class="cls-2" d="M269.87,726.87c1.37,6.79,4,14.24,3.44,21.22-.41,5.23-3.94,7-8.74,7.5-12.14,1.31-25-1.78-36.58-5.29a123.86,123.86,0,0,1-18.43-7.09c-4.24-2.07-20.82-9.93-12.56-16.2,4-3,11.47-1.78,16.28-2.44,8.16-1.13,16.2-3.44,24.46-1.82,1.57.31,2.24-2.1.66-2.41-7.43-1.46-14.6,0-22,1.21-5.71,1-11.78.51-17.39,1.92-3.72.93-7.14,3.88-6.78,8.08.46,5.16,6.27,8.42,10.23,10.71,11.3,6.55,24,10.81,36.76,13.55a103.92,103.92,0,0,0,17.82,2.43c4.33.17,9.58.36,13.6-1.59,10.22-5,3.15-22.75,1.6-30.44-.32-1.58-2.73-.91-2.41.66Z"/><path class="cls-3" d="M291.57,540.54c-2-1.5,6-2.5,8.5-3.5,22-6.5,40-15,63.5-13,27.5,1.5,50.5,8,75.5,19.5,11,5,22.5,12,30.5,21,9,10.5,5.5,15.5,2,27s-6,16-16.5,23.5c-9,6.5-18,12.5-29,16.5-41.5,15-90.5,14-120.5-23-37.5,17.5-75.5,40-113,59.5-25,13-49.5,26.5-75.5,37-11,4.5-21.5,9.5-32,14.5-6.5,3-17.5,12.5-24,9l1-.5c-1.5,0-14-24-18-28.5.5,0,1.5-1,1.5-1,3-6.5,24-14.5,30-17.5,11.5-6.5,22.5-12.5,34-19.5,23-15,46-31.5,69.5-46,22-13,43.5-27,65-41,10-6.5,18.5-15,28.5-22.5,5-4,11-11.5,16.5-13.5"/><path class="cls-2" d="M292.46,539.66c1.46,1.7,12.14-2.68,13.93-3.25,6.8-2.15,13.54-4.5,20.39-6.5a115.48,115.48,0,0,1,44-4.1,190.18,190.18,0,0,1,43.37,9.1c14,4.7,28.29,10.47,40.65,18.71,6.32,4.22,13.19,9.5,17.05,16.19,3.32,5.73,1.81,11.13-.1,17-1.81,5.54-3.21,11.44-6.33,16.44s-8.18,8.69-13,12.14a129.47,129.47,0,0,1-72.87,23.92c-28.21.57-54.9-9.64-73.08-31.68a1.29,1.29,0,0,0-1.52-.2c-33.11,15.52-64.82,33.77-97,51q-24.42,13.1-49.1,25.73c-16.15,8.25-32.64,15.42-49.26,22.63-8.9,3.85-18,7.74-26.51,12.3-5.67,3-14.51,11.28-21.35,8.29v2.16l1-.5a1.26,1.26,0,0,0-.3-2.28c-1-.34-2.77-4.28-3.37-5.28-1.73-2.86-3.38-5.76-5.06-8.64-2.79-4.8-5.41-10-9-14.26l-.26,2c1.82-.77,2.46-2.51,3.83-3.84,2.48-2.42,5.74-4.16,8.78-5.79,5.63-3,11.56-5.38,17.33-8.13,18.44-8.76,35.93-20.33,52.82-31.71,18.09-12.2,36-24.83,54.72-36,19-11.3,37.55-23.28,56.07-35.33a279.76,279.76,0,0,0,26.53-20c4.29-3.58,8.82-6.86,12.86-10.72,3.7-3.53,7.27-7.49,12.06-9.53,1.48-.63.21-2.78-1.26-2.16-7.42,3.16-12.75,10.49-19,15.4C261,559.53,253.14,567,244.19,573c-18.34,12.27-37,24.13-55.88,35.58s-36.92,23.38-55,35.66c-17.94,12.15-36.17,23.29-55.06,33.91-6.26,3.52-13,6.06-19.39,9.28a63.46,63.46,0,0,0-10,5.91c-1.74,1.33-3.43,4.34-5.35,5.15-.8.34-.71,1.43-.25,2C47.57,705.6,50.64,712.18,54,718c1.59,2.72,4.35,10.14,7.71,11.24l-.3-2.29-1,.5a1.26,1.26,0,0,0,0,2.16c7.73,3.37,16.09-3.84,22.38-7.46,11.43-6.58,24.18-11.61,36.35-16.63,25.46-10.51,49.65-23.69,74-36.41,25.5-13.29,50.51-27.5,75.94-40.93q8.4-4.43,16.87-8.73,5-2.55,10.11-5c2.32-1.14,7.15-4.67,9.54-3.83,1.52.53,3.78,4.24,5.06,5.53a85.15,85.15,0,0,0,6.47,5.85,84.16,84.16,0,0,0,11.88,8.11c35.57,20,85.26,13.61,118.48-8.3,7.49-4.94,16-10.18,20.6-18.17a59.3,59.3,0,0,0,4.63-11.76c1.39-4.42,3.36-9,3.68-13.66.68-9.65-7.91-17.33-14.83-22.73C452,547.91,440.8,542.68,429.5,538a202.24,202.24,0,0,0-41-12.31c-13.82-2.52-28.47-4.25-42.47-2.52-13.59,1.67-26.46,6.43-39.43,10.56-4.51,1.44-9.71,2.22-14.07,4.07-1.66.7-3.38,1.8-1.8,3.63,1.05,1.22,2.81-.56,1.77-1.77Z"/><path class="cls-3" d="M366.57,619.54c-13-10.5-33.5-18-49-25.5-26-13-55.5-26-84.5-30-51.5-7-25.66,57.84-18.33,86.17,4.93,19.07,12.7,57.44,18.7,71.44l2.13-.11c0,1,32,4,36,5.5l.5-2c-2.5-5-3.5-17.5-5.5-24.5-2.5-9.5-4.5-18.5-7-28-4-15-7.5-34.5-15.5-47,6,10.5,20,20,29.5,27.5,36.5,28,78.5,57,125,35.5,23-10.5,39.5-27.5,52-49,6-10.5,12.5-20,17.5-31,4-7.5,4.5-16,7.5-24"/><path class="cls-2" d="M367.46,618.66c-10.95-8.63-23.88-14.21-36.52-19.86-14.29-6.39-28.17-13.64-42.61-19.72-15.13-6.37-30.77-11.82-46.93-14.92-9-1.72-19.09-3.47-27.78.36-13.7,6.05-14,23.1-12.45,35.85,2.05,16.7,7.67,32.6,12,48.78,3.27,12.22,5.87,24.62,8.81,36.92,2.88,12,5.47,24.48,10.26,35.91a1.29,1.29,0,0,0,1.2.92c.33,0,3.21-.41,1.09-.66.13,0,.35.47.57.51.81.17,1.61.47,2.44.63,3.43.69,7,1,10.44,1.46,7.52,1,16,1,23.26,3.41a1.27,1.27,0,0,0,1.54-.88c.6-2.41.24-2.93-.54-5.37a93.11,93.11,0,0,1-2.5-12.28c-1.75-10.11-4.58-20-7.05-30-4.51-18.19-7.55-38.64-17.54-54.81-.84-1.36-3-.12-2.16,1.26,5,8.37,12.78,14.66,20.39,20.59,7.81,6.08,15.66,12.13,23.68,17.93,17.15,12.42,35.68,24.17,56.37,29.6,39.93,10.47,78.36-10.76,101.19-43.13,7.07-10,13.26-20.95,19.25-31.65a100,100,0,0,0,7.7-16c2.1-6.1,3.05-12.52,5.21-18.61.53-1.52-1.88-2.17-2.41-.66-1.7,4.78-2.67,9.73-4,14.62a77.15,77.15,0,0,1-6.54,15.52c-4.88,9.28-10.48,18.27-15.92,27.23-9.81,16.14-22.75,30.28-39,40.1-18.06,10.91-38.54,15.64-59.39,11.45-19.85-4-37.81-14.34-54.3-25.71-8.92-6.16-17.48-12.79-26.09-19.37s-18.22-13.55-24-23.14L243,626.17c9.86,15.94,12.84,36.26,17.29,54.22,2.3,9.26,5,18.52,6.68,27.92.73,4,1.3,8.12,2.27,12.11.56,2.29,1.69,4.06,1.14,6.29l1.53-.87c-5.52-1.86-12-2-17.74-2.72-3.94-.5-7.89-1-11.82-1.52-1.38-.19-2.76-.47-4.14-.63-.85-.09-2-.81-1.55-.06a1.26,1.26,0,0,0-1.08-.62c-2,.11-1.26.7-1.85-1.29s-1.44-4.09-2.09-6.16c-1.62-5.2-3-10.47-4.36-15.75-3-11.56-5.56-23.21-8.3-34.82-3.74-15.88-8.95-31.36-12.61-47.26-3-12.87-7.65-32.84,2.32-44,5.48-6.1,14.31-6.8,22-6,15.53,1.52,30.92,6.38,45.45,11.86,16.39,6.18,31.83,14.25,47.74,21.47,14.29,6.49,29.41,12.29,41.84,22.09,1.25,1,3-.78,1.77-1.77Z"/><path class="cls-4" d="M409.82,41.6c-.75,0-9.55-9.19-11.81-11.23-5.53-5.11-15.33-16.09-23.63-15.33-.5,3.32,6,7.15,7.79,9.71-3-3.07-7.29-6.64-12.06-6.9.25,3.58,6,7.92,8.29,10.73-3-3.32-7.29-7.92-12.06-8.43-4.53-.51-3,1.53-.76,4.6,4.28,5.87,9.05,11.74,13.58,17.62-4,1.79-20.61-.26-10.31,7.4a162.91,162.91,0,0,0,19.86,12.77"/><path class="cls-5" d="M410.15,40.4c-2.5-1-5.23-5-7.11-6.85-2.43-2.42-4.91-4.79-7.39-7.17-5.68-5.47-12.74-12.86-21.27-12.59A1.27,1.27,0,0,0,373.13,15c.08,4.78,5.51,7.29,8.16,10.59l1.77-1.77c-3.73-3.67-7.66-6.57-12.95-7.26-.87-.11-1.35.89-1.21,1.58,1,4.75,5.62,7.83,8.62,11.28l1.77-1.77c-3.08-3.35-6.62-7.27-11.2-8.47-1.7-.45-5-1.06-5.82,1.15-.87,2.5,3.17,6.29,4.41,8,3.78,5,7.74,10,11.59,14.93l.56-2.09c-3.22,1.2-13.36-.34-14.49,4.14-.59,2.37,2.4,4.4,3.88,5.55a148.79,148.79,0,0,0,19.86,12.77c1.41.78,2.67-1.38,1.26-2.16-2.84-1.57-23.81-13.46-22.1-15.84.9-1.26,5.34-1,6.74-1.13a21.83,21.83,0,0,0,5.51-.92,1.27,1.27,0,0,0,.55-2.09c-4.59-5.93-9.41-11.72-13.74-17.85-.22-.32-1.59-1.77-1.45-2.18.31-.92,5.2,1.31,5,1.2,3,1.6,5.39,4.33,7.67,6.81,1.09,1.2,2.81-.56,1.77-1.77-2.69-3.09-7.13-6-8-10.17l-1.2,1.58c4.56.59,8,3.41,11.18,6.53,1.17,1.16,2.75-.54,1.77-1.77-2-2.51-7.37-5.28-7.43-8.82l-1.25,1.25c9.25-.29,17,9.46,23.13,15.32,2.32,2.22,4.56,4.53,6.85,6.78,1.48,1.45,3.14,3.64,5.13,4.42,1.5.58,2.15-1.83.66-2.41Z"/><path class="cls-4" d="M74.07,409c-1-1-8-3-9.5-4-5-3.5-6.79-10.75-10.54-15.5-2-2.25-6.25-13-10.25-11-3.5,1.5-2.25,11.5-.5,13.75A101,101,0,0,0,18,384.79c-3.25-.5-11.5-1.75-6.5,2.75,3,3,9,4.5,12.5,6.75-2.25-.5-15.5-5.25-17-1.5-1,2.5,13.25,9,15.25,10.5-3,0-13-3.75-15.25,0-1.75,3.25,11,7,13.5,8.25,10.75,5.5,34.23,14.47,43,16,9.23,1.61,10-2.25,17.71,4.25"/><path class="cls-5" d="M74.7,408c-2-1.45-4.75-2-7-2.93-4.29-1.65-6.32-5.25-8.39-9.13-2.81-5.25-6-11.31-9.87-15.91-2.17-2.62-5.75-4.41-8-.8s-1.34,10.35.8,13.73l1.71-1.71a109.52,109.52,0,0,0-20.43-6.7c-3.21-.68-9.4-2.52-12.79-1.3-8.15,2.93,11.23,11.29,12.71,12.16l1-2.28c-3.14-.79-17.43-6.5-18.56-.46-.47,2.53,3.2,4.46,4.88,5.53,3.54,2.26,7.51,3.85,11,6.21l.63-2.33c-2.9-.18-17.41-4.81-16.62,2.24.33,2.88,4.71,4.46,6.89,5.41,3.55,1.55,7.13,2.88,10.63,4.53a251.79,251.79,0,0,0,30,11.78,62.68,62.68,0,0,0,12,3c6.24.72,9.88-.68,15.28,3.66,1.24,1,3-.76,1.76-1.77-2.64-2.12-5.29-4.06-8.77-4.31-3.74-.27-7.24.21-11-.57-8.6-1.78-17-5.25-25.18-8.49-7.16-2.85-14-6.28-21.19-9.11a33.24,33.24,0,0,1-5.93-2.75c-2.73-1.79-1.23-2.72,1.57-2.8,3.59-.1,7.05,1.44,10.62,1.66,1.33.08,1.58-1.68.63-2.33-1.87-1.27-4-2.24-6-3.32-1.77-1-7.11-3-7.91-5-1-2.4,5.86-.78,7.43-.41,2.44.58,4.81,1.39,7.24,2a1.26,1.26,0,0,0,1-2.29c-3-1.79-6.45-2.8-9.49-4.58a13.35,13.35,0,0,1-2.76-2c-.71-1-.54-1.41.49-1.16.69-.36,2.63.2,3.41.3a98.47,98.47,0,0,1,26.34,7.57c1,.45,2.45-.54,1.71-1.71a13.05,13.05,0,0,1-1.55-6.52c0-1.07-.26-2.86.37-3.8,2.1-3.11,3.57-.71,4.78.86a110.74,110.74,0,0,1,6.84,10.73c2.52,4.22,4.29,9.55,8.38,12.6,3,2.27,7.2,2.4,10.26,4.59,1.31.94,2.56-1.23,1.26-2.16Z"/><path class="cls-6" d="M284.07,346.21c-13.33-22.67,54.67-29.33,66-31.33,28-4.67,56.67-18,80.67-32,1.33,0-.67.66-.67,1.33h-1.33c-2.67-2.67,16.67-50.67,17.33-60.67,3.34-36.66-8-71.33-23.33-104-11.33-22.66-30.67-42.66-42.67-62l.67-.66c7.33-4,19.33-11.34,28-15.34,17.78,5.17,40.67,34,50,48.67,16.67,26.67,30.67,54.67,37.33,85.33,12.67,55.34,4.67,113.34-23.33,162.67-8.67,16-19.33,33.33-32,46,9,11.5,22,44,26,53.33,12,27.33,16,53.33,16,82.67,0,21.33-1.33,43.33-6.67,64-34-31.34-84-34.67-126.66-22.67-4-6-9.34-16-13.34-18.67-5.5,5.42-8,10-10.66,15.34-8-9.34-26.67-14-38.67-17.34,14-10.66,12.67-40.66,10.67-56-2-19.33-13.34-45.33-27.34-54-52,18-110,30.67-164.66,18-16.67-4-36-12-48-21.33,0-7.67,1.05-15.5,2-25.33,19.33,6,57.33,1.33,78.66-1.34,34-4.66,70-10,101.34-25.33,11.33-6,24.66-13.33,34.66-22,2.67-2,8-8.67,10-8.67"/><path class="cls-2" d="M285.15,345.58c-8.84-15.82,24.66-22.28,34-24.28C339,317,359,315.49,378.43,308.82a255.68,255.68,0,0,0,25.92-10.6c4.68-2.19,9.29-4.52,13.86-6.94,2.11-1.11,4.2-2.25,6.29-3.41,1.14-.63,5.28-3.95,6.36-3.67l-.55-2.09c-1.19,1.23-.77.41-.55,1.41a6,6,0,0,1,.16-2.06,52.41,52.41,0,0,1,1.86-7.3c2-6.85,4.36-13.59,6.64-20.35,4.66-13.79,9.27-26.53,9.47-41.21.36-25.31-6-50.17-15.31-73.55-4.39-11-9.15-21.92-15.48-32C410.57,96.66,403,87,395.54,77.21c-3.46-4.55-6.9-9.12-10.14-13.83-.53-.77-4.11-5.3-4.11-5.29.08-.81,6.31-3.65,7-4,4.46-2.55,8.92-5.13,13.45-7.57,1.84-1,4.38-3,6.47-3.31,2.34-.38,4.8,1.29,6.81,2.4,16.63,9.27,30,26.39,40.48,41.9,28.3,41.82,45.63,90.8,45.2,141.55a225.26,225.26,0,0,1-16.25,82.16,283.74,283.74,0,0,1-19,37.42C458.14,361,450,373,439.85,383.32a1.29,1.29,0,0,0-.19,1.52c11.66,15.29,18.17,34.94,25.64,52.48,12.23,28.73,16.58,58.39,16.14,89.49-.27,19.2-1.87,38.4-6.57,57.06l2.09-.55c-20.3-18.42-46.57-27.72-73.72-29.23a163.22,163.22,0,0,0-41,3.09c-3.44.69-6.82,1.71-10.26,2.37-1.83.35-1.54.66-2.85-.77s-2-3.29-3-4.79c-2.66-4.27-5.34-9.12-9.44-12.2a1.26,1.26,0,0,0-1.51.2,60.28,60.28,0,0,0-10.86,15.59l2-.26c-9.67-10.67-25.93-14-39.22-17.65l.55,2.09c13.94-11.25,13.12-34.78,11.7-50.79-1.75-19.7-7.95-41.2-22.05-55.77-1.83-1.89-4.81-5.25-7.53-5.53-1.23-.13-3.91,1.34-5.11,1.74q-2.56.87-5.14,1.71-6,2-12.13,3.8a419.23,419.23,0,0,1-40.86,10.23c-29,5.64-59,7.72-88.23,3A156.19,156.19,0,0,1,75,436.71c-3.33-1.62-6.61-3.37-9.77-5.31-2.17-1.32-5.79-2.83-6.58-5.4-.91-3,.42-8.08.71-11.15.39-4.21.86-8.43,1.28-12.64l-1.59,1.2c12.7,3.76,26.6,3.29,39.67,2.59,13.84-.75,27.67-2.27,41.39-4.16,34.47-4.74,70.94-9.76,102.06-26.36a224.79,224.79,0,0,0,25.17-15.11,91.33,91.33,0,0,0,9-7.16c2.18-2,5-6.47,8-7.13,1.58-.34.91-2.76-.66-2.41-4.16.91-7.47,6.32-10.55,9a138.54,138.54,0,0,1-21.86,14.92,204.65,204.65,0,0,1-48.91,20.22c-31.13,8.43-64,12.77-96.14,15.21-15.19,1.15-31.74,2.37-46.54-2a1.27,1.27,0,0,0-1.58,1.21c-.63,6.37-1.42,12.73-1.8,19.13-.11,1.77-.89,5.22,0,6.83S60.06,431,61.44,432c10,6.61,21.36,11.4,32.76,15.07,25.32,8.14,52.73,9.52,79.08,7.32,27.2-2.27,53.95-8.49,80-16.61,2.88-.9,5.76-1.82,8.62-2.77s6.71-3.26,9.42-1.75c4.71,2.61,8.58,8.66,11.32,13a95.5,95.5,0,0,1,12.45,31.62,127.17,127.17,0,0,1,2.18,31.58c-.58,10.71-2.52,23.4-11.39,30.55a1.26,1.26,0,0,0,.56,2.09c12.9,3.57,28.74,6.67,38.11,17a1.27,1.27,0,0,0,2-.25,68.58,68.58,0,0,1,4.69-8.26c1.85-2.69,4-7.49,6.84-4.08,4,4.76,6.9,10.48,10.31,15.67a1.26,1.26,0,0,0,1.41.57c42.49-11.75,91.54-8.42,125.45,22.35a1.27,1.27,0,0,0,2.09-.55c6.08-24.14,7.38-49.49,6.54-74.29C483,487,478.88,464,470.1,442.32c-5.83-14.37-11.87-28.79-18.82-42.65-1.7-3.41-3.48-6.8-5.44-10.07-.77-1.29-1.81-2.53-2.46-3.88-.56-1.16-.79-.88-.61-1.79s2.72-2.9,3.37-3.64a183.12,183.12,0,0,0,19.25-26.7c23.73-39.07,38.07-82,37.77-128a232.66,232.66,0,0,0-10.41-67.45c-7-22.32-17.57-43.32-29.67-63.25-10.13-16.7-22.6-33-37.92-45.29a58.59,58.59,0,0,0-10.92-7.2c-3.44-1.68-5.13-2.45-8.57-.76-5,2.48-9.9,5.26-14.77,8-3.68,2.11-8.7,4-11.71,7a1.27,1.27,0,0,0-.2,1.51c11.27,17.92,25.77,33.56,36.86,51.61,11.86,19.32,20.09,42,25.19,64.07,4.07,17.64,7.23,38.57,2.34,56.37-3.44,12.54-8.11,24.74-12.09,37.11-1.51,4.67-3.62,9.78-4,14.72-.26,3.61,2.26,4.41,4.76,1.82a1.26,1.26,0,0,0-.55-2.09c-2.43-.6-5.51,2.37-7.52,3.5q-6.27,3.51-12.69,6.77a272.71,272.71,0,0,1-29.21,12.82,194.77,194.77,0,0,1-39.33,9.84c-9.29,1.33-18.56,2.81-27.7,4.93s-18.8,4.59-26.58,9.86c-6.2,4.19-9.42,10.34-5.51,17.34a1.25,1.25,0,0,0,2.16-1.26Z"/><path class="cls-7" d="M325.57,388.54c2,.5-.5,29.5-.5,34.5a280.31,280.31,0,0,1-7,54.5c-3,14-8,28.5-8.5,42.5,9,7.5,17,19.5,24.5,28.5,8.5-7.5,21-13.5,30-19h-.5c.5-8.5-2.5-21.5-3.5-31-2.5-19.5-5.5-39.5-8-59-2-16-7.5-34-6.5-50"/><path class="cls-2" d="M324.94,389.62c-.13-.07.13,3,.15,3.82,0,2.14,0,4.29-.09,6.43-.18,5.25-.51,10.5-.82,15.74-.89,15.11-1.53,30.08-4,45.05-2.95,17.59-9,34.66-11.22,52.35-.28,2.16-1.23,5.89-.23,7.92.71,1.43,3.44,3.1,4.61,4.28,1.53,1.56,3,3.2,4.44,4.86,5.39,6.26,10.2,13,15.45,19.36a1.29,1.29,0,0,0,1.77,0c9-7.68,19.7-12.75,29.74-18.81a1.26,1.26,0,0,0-.63-2.33h-.5l1.25,1.25c.39-9.94-2.11-19.81-3.34-29.62-1.55-12.33-3.29-24.63-5-36.94s-3-24.43-5.28-36.52-5-24.43-4.38-36.92c.08-1.61-2.42-1.6-2.5,0-.54,11.22,1.55,22.27,3.64,33.23,2.34,12.29,3.87,24.67,5.58,37.05,1.81,13.13,3.74,26.25,5.36,39.41,1.24,10,3.82,20.15,3.42,30.31a1.27,1.27,0,0,0,1.25,1.25h.5l-.63-2.33c-10.23,6.18-21.12,11.37-30.25,19.2H335c-5.61-6.8-10.7-14-16.55-20.61-2-2.28-6.94-5.66-7.5-8.76-.83-4.58,1.38-11.07,2.37-15.6,3.92-18,8.83-35.56,11.09-53.91,1.61-13,1.93-26.16,2.67-39.25.28-5.09.6-10.19.56-15.28,0-1.74.45-5.68-1.4-6.79a1.25,1.25,0,0,0-1.26,2.16Z"/><path class="cls-7" d="M352.57,340.54c-.5,16.5-6,33-6.5,49.5a67.6,67.6,0,0,0-20-1.5c-4-17-12-34.5-17-51.5,13,.5,34.5-2,46,3.5"/><path class="cls-2" d="M351.32,340.54c-.69,16.69-5.81,32.81-6.5,49.5l1.58-1.2c-5.61-1.21-11.12-1-16.74-1.72-1.81-.24-2.11.25-3-1.55a28.05,28.05,0,0,1-1.21-4.42c-.86-3-1.81-5.94-2.8-8.88-4-11.89-8.73-23.53-12.33-35.56l-1.21,1.58c14.62.46,31.6-2.82,45.37,3.33,1.46.65,2.73-1.5,1.26-2.16-14.31-6.39-31.45-3.19-46.63-3.67a1.26,1.26,0,0,0-1.2,1.58c5.19,17.33,12.72,33.9,17,51.5a1.24,1.24,0,0,0,1.2.92,71.41,71.41,0,0,1,19.67,1.46,1.27,1.27,0,0,0,1.58-1.21c.69-16.69,5.81-32.8,6.5-49.5.07-1.61-2.43-1.6-2.5,0Z"/><path class="cls-6" d="M399.07,348.54c0,.5.5-3,1-4h0c-18.5,8-39,8.5-59,8-24.5-1-50-10-74.5-6.5,9,16,30,26.5,38,44,8.5-12,22-25,33.5-32.5l-.5.5c7.5,8,19,21,26,31.5,12.5-13,24-28,36-41.5"/><path class="cls-2" d="M400.15,349.17c.76-1,.69-3.11,1.13-4.3.3-.83-.68-1.89-1.54-1.53-20.35,8.53-44.11,9.52-65.87,7.45-22.45-2.14-44.58-9-67.3-6a1.27,1.27,0,0,0-1.08,1.88c9.93,17,29.4,26.05,38,44a1.26,1.26,0,0,0,2.16,0,130.09,130.09,0,0,1,33.05-32.05l-1.51-2-.5.5a1.28,1.28,0,0,0,0,1.77c9.2,9.85,18.24,20.06,25.8,31.24a1.28,1.28,0,0,0,2,.26c12.65-13.26,23.86-27.78,36-41.5,1.06-1.21-.7-3-1.77-1.77-12.14,13.72-23.35,28.24-36,41.5l2,.25c-7.69-11.36-16.84-21.74-26.19-31.75v1.77l.5-.5c1-1-.31-2.77-1.52-2a133.43,133.43,0,0,0-33.95,33h2.16c-8.62-18-28.07-27-38-44l-1.08,1.88c23.32-3,46,4.24,69.11,6.16,21.42,1.78,44.7.69,64.72-7.7l-1.53-1.54c-.34.92-.32,3-.88,3.7-.95,1.3,1.21,2.54,2.16,1.26Z"/><path class="cls-4" d="M446.53,254s0-.5-.5,1c-7,20-6.5,40.5-18,60-13,22.5-34.5,37-59.5,45-21,6.5-45.5,9-68,8.5-21-.5-48-3-71-14C206.25,343.35,197,330,189.9,315.55c-2.47-5-11.3-32.06-8.87-57.56l-1,.5c-31-.5-23-41,4.5-40v.5c0,3,3.5-14,4.5-17a326.55,326.55,0,0,1,15.5-33c12.5-22.5,35.5-42,58.5-54,37-19.5,87-14,123.5,5,15.5,8,29.8,27.11,40,44.07,6,10,12.26,30.62,14,48.43v1.18c27.5-1,35.5,39.5,4.5,40"/><path class="cls-5" d="M447.74,253.66l0-.08a1.26,1.26,0,0,0-2.09-.55c-1.1,1.26-1.42,3.42-1.9,5-1,3.32-1.89,6.68-2.67,10.06-1.67,7.25-2.93,14.59-4.7,21.82-3.4,13.94-9.36,26.76-18.76,37.69C400.72,347.2,376.41,358,351.45,363a238.49,238.49,0,0,1-83.66,1.48C242.27,360.43,215,350.64,199.25,329c-14.36-19.77-19-47.09-17-71,.09-1-1.1-1.47-1.88-1.08-4.35,2.17-12.51-2.26-15.34-5.47a16.33,16.33,0,0,1-3.44-13.57c1.89-11.18,11.9-18.32,22.91-18.13l-1.25-1.25a3.34,3.34,0,0,0,.1,1.18,1.27,1.27,0,0,0,1.84.75c1.34-.92,1.51-3.68,1.86-5.09.88-3.62,1.63-7.26,2.57-10.87,1.42-5.44,4.12-10.62,6.45-15.74,3.16-6.94,6.48-13.87,10.29-20.47,13-22.49,34.45-40.31,57.28-52.18s49.45-14.15,74.59-10.37,50.5,12.69,67.71,32c9.3,10.41,18.39,22.71,23.71,35.71,5,12.14,9.6,27.1,9.6,40.31a1.28,1.28,0,0,0,1.25,1.25c10.88-.19,20.78,6.73,22.85,17.73,2.27,12.1-7.07,19.39-18.35,19.77-1.6.05-1.61,2.55,0,2.5,12.35-.41,22.77-8.31,21-21.59-1.72-12.69-13-21.13-25.48-20.91l1.25,1.25c0-12.21-4-25.51-8.12-36.89s-10.84-21.72-18.19-31.45-16.12-19.63-27.05-25.75a142.68,142.68,0,0,0-35.3-13.45c-24.31-6-50.69-6.69-74.69,1.06-24.57,7.93-47.6,25.13-63.86,45-10.31,12.58-17.31,27.37-23.7,42.23a80.48,80.48,0,0,0-4.65,13.65c-.52,2.2-1,4.41-1.55,6.6-.19.75-1.12,3.88-.71,3.6l1.84.75a1.83,1.83,0,0,1,0-.52,1.26,1.26,0,0,0-1.25-1.25c-12.9-.22-24.63,9-25.61,22.25a18.23,18.23,0,0,0,5.49,14.85c3.8,3.52,12.27,7.22,17.26,4.73L179.78,258c-1.83,21.58,1.81,46.34,12.84,65.31,12.75,21.93,35.39,34.39,59.43,40.52,27.58,7,57.6,7.62,85.71,4,26.09-3.4,52.08-11.5,72.24-29A88.61,88.61,0,0,0,435,303c2.9-7.85,4.61-16,6.29-24.23.8-3.93,1.6-7.86,2.53-11.76.54-2.24,1.12-4.48,1.77-6.7.43-1.43.79-4.42,1.77-5.53l-2.09-.55,0,.07a1.25,1.25,0,0,0,2.41-.66Z"/><path class="cls-8" d="M267.43,211.84c-15.44,1.33-24.69,31.67-8.86,39.27C290.23,266.31,304.17,208.67,267.43,211.84Z"/><path class="cls-2" d="M267.43,210.59c-10.41,1.28-16.65,12-18,21.57-1.6,11.08,3.86,20,15,22.28,17,3.47,29.8-15.1,25.29-30.67-2.92-10.09-12.5-13.88-22.3-13.18-1.59.11-1.6,2.62,0,2.5,7.42-.53,15.21,1.33,18.79,8.49,2.92,5.83,2.24,13.12-.42,18.92-2.77,6-8.05,10.95-14.8,11.78-9.3,1.15-18.43-4.42-19.33-14.11s4.87-23.74,15.76-25.08C269,212.9,269,210.4,267.43,210.59Z"/><path class="cls-2" d="M270.21,227.44c-3.57-.48-6.42,4.75-2.85,6.88,4.75,2.85,8.31-6.17,2.13-6.65Z"/><path class="cls-2" d="M270.21,226.19a5.49,5.49,0,0,0-5.74,5.48,4.76,4.76,0,0,0,5.76,4.33,5.4,5.4,0,0,0,3.8-5c.12-2.76-2-4.35-4.54-4.62l.34,2.46.71-.24c1.52-.5.87-2.92-.67-2.41l-.71.24a1.25,1.25,0,0,0,.33,2.45c1.19.13,2.1.76,2,2a3,3,0,0,1-1.64,2.55,2.22,2.22,0,0,1-2.92-1.82,3,3,0,0,1,3.24-3C271.81,228.83,271.8,226.33,270.21,226.19Z"/><path class="cls-8" d="M346.93,210.29c-15.44,1.33-24.69,31.67-8.86,39.27C369.73,264.76,383.67,207.13,346.93,210.29Z"/><path class="cls-2" d="M346.93,209c-10.41,1.28-16.65,12-18,21.57-1.6,11.09,3.86,20,15,22.29,17,3.46,29.8-15.1,25.29-30.68-2.92-10.09-12.5-13.87-22.3-13.18-1.59.12-1.6,2.62,0,2.5,7.42-.52,15.21,1.33,18.79,8.49,2.92,5.84,2.24,13.12-.42,18.92-2.77,6-8.05,11-14.8,11.79-9.3,1.14-18.43-4.42-19.33-14.12s4.87-23.74,15.76-25.08C348.51,211.35,348.53,208.85,346.93,209Z"/><path class="cls-2" d="M349.71,225.89c-3.57-.48-6.42,4.75-2.85,6.89,4.75,2.85,8.31-6.18,2.13-6.65Z"/><path class="cls-2" d="M349.71,224.64a5.49,5.49,0,0,0-5.74,5.48,4.76,4.76,0,0,0,5.76,4.33,5.4,5.4,0,0,0,3.8-5c.12-2.76-2-4.35-4.54-4.61l.34,2.45.71-.24c1.52-.5.87-2.92-.67-2.41l-.71.24a1.26,1.26,0,0,0,.33,2.46c1.19.12,2.1.75,2,2a3,3,0,0,1-1.64,2.55,2.22,2.22,0,0,1-2.92-1.82,3,3,0,0,1,3.24-3C351.31,227.28,351.3,224.78,349.71,224.64Z"/><path class="cls-2" d="M260.24,190.69c-17-.54-29.55,12.41-36.11,27-6.68,14.82-7.83,31,4.11,43.51,12.79,13.39,31.25,14.23,46.64,5,14.68-8.76,24.87-23.57,22.3-41.19-2.88-19.77-16.68-33.72-36.94-34.32a1.25,1.25,0,0,0,0,2.5c16.79.5,28.51,10.33,33.16,26.23,4.75,16.26-1.57,31.62-15,41.47-14,10.26-31.5,13-45.55,1.17a32.09,32.09,0,0,1-11.19-18.7c-1.19-6.93.72-14.29,3.13-20.76,5.66-15.18,17.93-30,35.46-29.41,1.61.05,1.61-2.45,0-2.5Z"/><path class="cls-2" d="M356.31,190.18c-17-.54-29.55,12.41-36.11,26.95-6.68,14.83-7.83,31,4.11,43.51,12.79,13.4,31.25,14.24,46.64,5.05,14.68-8.76,24.87-23.58,22.3-41.19-2.88-19.77-16.68-33.73-36.94-34.32-1.61-.05-1.61,2.45,0,2.5,16.79.49,28.51,10.33,33.16,26.23,4.75,16.26-1.57,31.62-15,41.46-14,10.26-31.51,13-45.56,1.17a32.09,32.09,0,0,1-11.19-18.7c-1.19-6.93.72-14.28,3.13-20.76,5.66-15.17,17.93-30,35.46-29.4,1.61,0,1.61-2.45,0-2.5Z"/><path class="cls-2" d="M296,232.74h20a1.25,1.25,0,0,0,0-2.5H296a1.25,1.25,0,0,0,0,2.5Z"/><path class="cls-2" d="M392,227.74c10.1-.17,21.48-2.35,30.64-6.67,1.45-.69.18-2.85-1.27-2.16-8.7,4.11-19.79,6.17-29.37,6.33a1.25,1.25,0,0,0,0,2.5Z"/><path class="cls-2" d="M197.4,223.57c6.2,4.28,15,11.58,23.13,10.67,1.59-.18,1.6-2.68,0-2.5-7.53.85-16-6.31-21.86-10.33-1.33-.92-2.58,1.25-1.27,2.16Z"/><path class="cls-9" d="M266.49,174.24c-8-.83-19.65,9.91-5,11.42,5.2.54,18.1.44,14.63-7.56-1.92-4.5-10.95-4.95-14.93-3.45"/><path class="cls-2" d="M266.49,173a14.47,14.47,0,0,0-12,5.32c-2.66,3.6-.47,6.82,3.41,8,5.56,1.63,25.33,1.33,19-9.31-2.9-4.91-11.33-5.16-16.09-3.53-1.51.52-.86,2.93.67,2.41,3.9-1.33,12.21-1.47,13.71,3.46s-6.17,5.22-9.22,5.28c-2.45,0-11.21.24-10.14-3.73,1-3.75,7.32-5.61,10.61-5.37,1.61.11,1.6-2.39,0-2.5Z"/><path class="cls-9" d="M353.18,174.24c-8-.83-19.65,9.91-5,11.42,5.2.54,18.1.44,14.63-7.56-1.92-4.5-10.95-4.95-14.92-3.45"/><path class="cls-2" d="M353.18,173a14.47,14.47,0,0,0-12,5.32c-2.66,3.6-.47,6.82,3.41,8,5.56,1.63,25.33,1.33,19-9.31-2.9-4.9-11.32-5.16-16.09-3.53-1.51.52-.86,2.93.67,2.41,3.9-1.33,12.21-1.47,13.71,3.46s-6.17,5.22-9.22,5.28c-2.45,0-11.21.23-10.14-3.73,1-3.75,7.32-5.61,10.61-5.37,1.61.11,1.6-2.39,0-2.5Z"/><path class="cls-9" d="M196,180c-16,3-20,32.5-11.5,43.5,9,12,17,2,20.5-8,5-13-2-13.5-7-24.5-1.5-3.5-1-7.5-1-11.5"/><path class="cls-2" d="M195.7,178.78c-18.32,4.09-22.06,35.56-10.3,47.64,9.63,9.89,18-2.47,21.13-11.41,1.7-4.91,2.11-9.42-.66-14-1.44-2.38-3.28-4.49-4.73-6.87-2.91-4.79-2.93-9.3-2.86-14.69a1.25,1.25,0,0,0-2.5,0c-.07,5.39-.16,10,2.52,14.78,2,3.57,5.43,6.73,6.73,10.65,1.64,5-1.21,11.33-3.63,15.64-1.32,2.36-3.14,5.11-5.65,6.38-4,2-7.47-.72-9.89-3.82-8.81-11.25-5.26-38.41,10.51-41.93,1.57-.35.9-2.76-.67-2.41Z"/><path class="cls-9" d="M434,174.49c1,6.5-5.5,10-10,13.5-8,6.5-14,14-13,25,1.5,13,14,15,23,7.5,8.5-7,11-18,10-28-.5-7-3.5-18.5-12-19"/><path class="cls-2" d="M432.78,174.49c.61,7.94-10.12,12.37-14.94,17.46-4,4.24-7,9.28-7.9,15.12-1.5,10.35,4.59,21,16.19,18.69,12.9-2.6,19.3-17,19.36-28.94.05-9.18-2.35-23.25-13.46-24.58-1.59-.19-1.58,2.31,0,2.5,11,1.32,11.84,19.37,10.54,27.56-1.58,9.93-10.47,24.2-22.52,20.92-13.65-3.72-7-22.58-.44-29.5,5.42-5.73,16.38-10,15.67-19.23-.12-1.6-2.62-1.61-2.5,0Z"/><path class="cls-2" d="M294.14,278.21c.5-6.7,6.37-21.38,15.48-18,6.26,2.29,7.84,12.28,8.31,18,.13,1.6,2.63,1.61,2.5,0-.59-7.22-3-19.85-12-20.83-10.29-1.13-16.18,12.57-16.79,20.83-.12,1.61,2.38,1.6,2.5,0Z"/><path class="cls-2" d="M301.19,269.05a15.45,15.45,0,0,1,.27,3.46,1.25,1.25,0,0,0,2.5,0,18.45,18.45,0,0,0-.36-4.13c-.37-1.56-2.78-.9-2.41.67Z"/><path class="cls-2" d="M308.74,268.71v3.2a1.25,1.25,0,0,0,2.5,0v0a1.25,1.25,0,0,0-2.5,0v0a1.25,1.25,0,0,0,2.5,0v-3.2a1.25,1.25,0,0,0-2.5,0Z"/><path class="cls-9" d="M365.46,313.92l2.53-1.27c-6.33,9.19-31.21,11.24-40.71,9.34-10.45-2.22-17.49-12.31-22.24-22.13h0c-4.43,9.5-10.81,21.21-21.26,24.38-12.66,4.12-27.89-2.4-37.7-9.05a28.62,28.62,0,0,0,5.38-.32c17.42-4.12,10.13-26.92,21.53-37.05,10.14-8.55,23.44-7,32.3,2.53l.64.64c4.43-8.55,18.68-13.94,27.23-9.5,6,3.48,11.4,8.86,12.67,16.15,1.26,7-.32,14.25,4.11,20.58S362.29,318,368,312.65"/><path class="cls-2" d="M366.09,315l2.53-1.27L366.91,312c-6.32,8.39-21.73,9.35-31.26,9.36-5.58,0-10.8-.66-15.55-3.88-6.44-4.36-10.6-11.44-14-18.27a1.26,1.26,0,0,0-2.16,0c-4.51,9.58-10.3,20.89-21.27,24-12.41,3.54-25.78-2.39-36-9.14l-.63,2.33c6.11,0,11.58-1.48,15.29-6.66,3.44-4.79,4.3-10.93,5.6-16.54,1.74-7.53,4.33-14.09,11.73-17.67,9.65-4.67,19.25-.8,26.34,6.3a1.26,1.26,0,0,0,2-.25c4.14-7.23,14.26-12.05,22.53-10.11,10.48,2.46,15.11,13,15.66,22.61.43,7.42,1.67,14.37,7.88,19.2,5,3.87,10.89,4.3,15.81.22,1.24-1-.54-2.79-1.77-1.77-5.2,4.31-11.49,1.47-15.28-3.19-4-5-3.82-10.87-4.28-16.9-.6-7.78-3.75-14-10-18.76-10.33-7.9-26.31-3.74-32.7,7.44l2-.26c-5.27-5.27-11.55-9.16-19.25-9.12-7.15,0-14.66,3.61-18.6,9.69-7.94,12.24-2.9,33.14-22.88,33.27a1.26,1.26,0,0,0-.63,2.33c10.76,7.12,24.85,13.12,37.9,9.4,11.67-3.34,18-15,22.77-25.18H304c3.48,7,7.8,14.1,14.3,18.75,5.24,3.75,11.1,4.66,17.39,4.64,10.67,0,26.41-1.3,33.42-10.59.82-1.09-.71-2.21-1.71-1.72l-2.53,1.27c-1.44.72-.18,2.88,1.26,2.16Z"/><path class="cls-2" d="M440.53,237a30.22,30.22,0,0,0,7.93-.79c1.68-.35,4.36-.77,5-2.63.55-1.52-1.87-2.17-2.41-.66,0,0-1.45.43-1.82.53a29,29,0,0,1-3.05.64,25.75,25.75,0,0,1-5.68.41c-1.6-.11-1.59,2.39,0,2.5Z"/><path class="cls-2" d="M169.7,238.94c1.69.31,15.3,4.27,14.83.8-.21-1.57-2.71-1.59-2.5,0,1-.72,1.17-1,.55-1l-.59,0a11,11,0,0,0-1.71-.22c-1.3-.2-2.59-.46-3.87-.72-2-.42-4-.93-6-1.3-1.58-.28-2.25,2.13-.67,2.41Z"/><path class="cls-2" d="M294.82,149.93c8.3-.07,16.58-.7,24.87-1.24,1.59-.11,1.61-2.61,0-2.5-8.29.54-16.57,1.17-24.87,1.24a1.25,1.25,0,0,0,0,2.5Z"/><path class="cls-2" d="M292.49,163.65a86.81,86.81,0,0,1,24.27-1.85c1.61.11,1.6-2.39,0-2.5a88.84,88.84,0,0,0-24.93,1.94c-1.58.34-.91,2.75.66,2.41Z"/><path class="cls-2" d="M291.22,175.69c9.9-.87,19.72-2.44,29.68-1.82,1.61.1,1.61-2.4,0-2.5-10-.62-19.78.95-29.68,1.82-1.59.14-1.6,2.65,0,2.5Z"/><path class="cls-10" d="M308.2,105c3.58-11.31,15-25.65,26.67-29-.57,19.12-7,39-28.47,43.51"/><path class="cls-2" d="M309.41,105.31c4-11.84,13.56-24.21,25.79-28.18l-1.58-1.2c-.69,18.71-7.41,37.65-27.55,42.31-1.56.36-.9,2.77.67,2.41,21.22-4.91,28.65-24.89,29.38-44.72a1.26,1.26,0,0,0-1.59-1.21C321.42,79,311.29,91.94,307,104.65c-.52,1.53,1.9,2.18,2.41.66Z"/><path class="cls-2" d="M306.27,53.52c3,22.26,1.4,45.09-1.79,67.24-.23,1.58,2.18,2.26,2.41.67,3.26-22.64,4.89-45.83,1.79-68.58-.21-1.58-2.62-.91-2.41.67Z"/><path class="cls-11" d="M315.3,26c5.32-3.54,14.07-7.54,19.82-.94,9,10.92-3.85,23-15.46,20.3l-.07.47c5.17.76,12.74,8.11,12.85,13.89-.12,13.9-22,5.9-25.05-2.71l.4.53c-.29,8.6-13.17,21.12-19.11,9.21-2.26-4.18,1.74-15.11,5.44-17.45l-.07.47c-25.38-3.72-10.29-31.28,4.05-24.37l-.4-.54c-2.18-8,3.39-26.39,14.94-23.25,11.07,3.06,7,17.82,2.87,23"/><path class="cls-2" d="M315.93,27.09c6.93-4.47,18.9-7.51,20.78,4.22,1.44,9.06-9.14,14.24-16.71,12.86-.6-.11-1.44.16-1.54.87l-.07.47a1.28,1.28,0,0,0,.87,1.54c4.93,1.07,10.26,5.84,11.6,10.79,1.16,4.24-1.12,7.82-5.49,8.15-5.94.44-14.42-3.6-16.77-9.31l-2.29,1c1.47,2-2.63,7.34-3.92,8.75-2.05,2.26-5.35,4.81-8.6,3.78-8.13-2.56-3.81-16.2,1-19.79L292.92,49l-.07.47,1.53-.88c-7.31-1.22-15.05-5.75-12.12-14.29,2.13-6.17,8.86-10.58,15.21-7.79,1,.43,2.55-.58,1.71-1.71-2.07-2.79-.31-9,.65-11.92,1.39-4.23,4.2-9.45,9.06-10.22,12.77-2,10.22,15.07,5.54,21.33-1,1.29,1.2,2.54,2.16,1.26,6-7.95,7-26.5-7.42-25.16-5.48.51-9.07,5.39-11,10.12-1.6,3.89-4,12-1.13,15.85l1.71-1.71c-7.6-3.34-15.73,1.1-18.63,8.61-3.9,10.06,4.52,16.52,13.61,18a1.26,1.26,0,0,0,1.54-.87l.07-.47c.13-.92-.86-2.15-1.84-1.41-6.47,4.88-10.79,20.49-.81,24.19,4.48,1.66,9-1.43,11.86-4.69,1.93-2.22,6.18-8.32,3.93-11.34-.76-1-2.87-.47-2.28,1,3.05,7.42,15.31,13.93,23,10.25,11.78-5.61-1.3-21.21-9.3-23l.87,1.53.07-.47-1.54.88c9.26,1.69,21.56-4.7,19.9-15.59-.75-4.94-4.5-9.44-9.47-10.48-5.33-1.11-10.76,1.63-15.09,4.42-1.35.87-.1,3,1.26,2.16Z"/><path class="cls-12" d="M307.22,32c-5.66,2.53-6.52,18.24,2.16,14.71,7.06-2.32,2.82-19.26-3.85-13"/><path class="cls-2" d="M306.59,31c-7.38,3.74-6.34,21.85,3.86,16.71,7.93-4,2.28-21.85-5.8-14.84-1.22,1,.55,2.81,1.77,1.76,2.83-2.46,4.63.87,5.15,3.5.58,2.9.15,6.65-3.08,7.66-6.52,2-4.68-10.59-.64-12.64,1.43-.72.17-2.88-1.26-2.15Z"/></g></g></svg>