<svg xmlns="http://www.w3.org/2000/svg" viewBox="0 0 198.52 186.11"><defs><style>.cls-1{fill:#fff;}.cls-1,.cls-2,.cls-3{stroke:#231815;stroke-width:3px;}.cls-1,.cls-2,.cls-3,.cls-5,.cls-6{stroke-miterlimit:10;}.cls-2{fill:none;}.cls-3,.cls-6{fill:#231815;}.cls-4{fill:#231816;}.cls-5{fill:#040000;}.cls-5,.cls-6{stroke:#231816;stroke-width:0.5px;}.cls-7{fill:#edafa9;}</style></defs><title>資產 1</title><g id="圖層_2" data-name="圖層 2"><g id="圖層_4" data-name="圖層 4"><rect class="cls-1" x="84.97" y="-62.07" width="31.18" height="189.92" transform="translate(51.41 126.59) rotate(-80.43)"/><rect class="cls-1" x="1.5" y="65.55" width="189.92" height="119.05"/><line class="cls-2" x1="1.32" y1="97.47" x2="191.6" y2="97.47"/><polygon class="cls-3" points="52.33 9.39 37 38.19 14.7 34.22 30.2 5.23 52.33 9.39"/><polygon class="cls-3" points="97.6 16.7 83.24 45.74 61.92 42.14 76.61 13 97.6 16.7"/><polygon class="cls-3" points="145.47 24.75 131.1 53.79 109.79 50.19 124.16 21.06 145.47 24.75"/><polygon class="cls-3" points="191.07 32.37 176.71 61.42 155.4 57.82 169.83 28.76 191.07 32.37"/><polygon class="cls-3" points="47.79 96.49 37.36 65.58 14.71 65.84 25.27 96.98 47.79 96.49"/><polygon class="cls-3" points="93.64 96.67 84.21 65.67 62.59 65.74 72.33 96.89 93.64 96.67"/><polygon class="cls-3" points="142.18 96.54 132.75 65.54 111.13 65.61 120.55 96.7 142.18 96.54"/><polygon class="cls-3" points="188.42 96.46 178.99 65.46 157.37 65.53 166.87 96.56 188.42 96.46"/><path class="cls-4" d="M43.5,112c-16.14-.52-18.44,27.82-1.52,27.72,6.58,0,12-5.33,12.88-11.72.94-7-3.59-16-11.36-16a1.25,1.25,0,0,0,0,2.5c6.57,0,10,8.47,8.73,14.11A10.86,10.86,0,0,1,42,137.19c-13.64.1-11.45-23.14,1.52-22.72,1.61,0,1.61-2.45,0-2.5Z"/><path class="cls-4" d="M80.5,114c-.79,7.08-1.89,14.11-1.75,21.25h2.5a3.27,3.27,0,0,0-.42-1.63c-.76-1.42-2.92-.16-2.16,1.26l.08.37a1.25,1.25,0,0,0,2.5,0c-.14-7.14,1-14.17,1.75-21.25.18-1.6-2.32-1.58-2.5,0Z"/><path class="cls-4" d="M61.29,144.3c1.56,8.83,10.55,14.35,19.21,13.67,9.63-.75,16.75-8.12,20.21-16.67.6-1.49-1.82-2.14-2.42-.66-3,7.5-9.35,14.08-17.79,14.83-7.61.67-15.43-4.06-16.79-11.83-.28-1.58-2.69-.91-2.42.66Z"/><path class="cls-4" d="M122,110.73c-16.15-.52-18.44,27.81-1.53,27.72,6.59,0,12-5.33,12.89-11.72.94-7-3.59-16-11.36-16a1.25,1.25,0,0,0,0,2.5c6.57,0,10,8.47,8.73,14.11A10.89,10.89,0,0,1,120.45,136c-13.63.1-11.45-23.14,1.53-22.72,1.61,0,1.6-2.45,0-2.5Z"/><ellipse class="cls-5" cx="42.5" cy="124.47" rx="2.25" ry="2.75"/><ellipse class="cls-6" cx="121" cy="123.47" rx="2.25" ry="2.75"/><path class="cls-7" d="M2,130.72c5.25,1,13.5,4,15.5,10.75,2.75,10-4.75,22.25-15,24.25"/><path class="cls-4" d="M1.67,131.93c7.75,1.61,15.53,5.62,15.14,14.67A19.64,19.64,0,0,1,2.17,164.51c-1.57.38-.9,2.79.66,2.42C12,164.73,18.9,156,19.31,146.6c.43-10.12-8.09-15.24-17-17.09-1.57-.32-2.24,2.09-.66,2.42Z"/><path class="cls-7" d="M191.5,124.22c-5-4-15.25-.5-20,3-9,6.5-15,19.5-8.25,30C168.75,165.72,182,169,190,163"/><path class="cls-4" d="M192.13,123.14c-6-4-14.79-1.24-20.37,2.38-6.71,4.36-11.83,12-12.56,20-1.44,16.14,18,27.74,31.43,18.53,1.32-.9.07-3.07-1.26-2.16-12.12,8.29-29.43-2.36-27.57-16.89a25.19,25.19,0,0,1,10.78-17c4.85-3.33,12.92-6.31,18.29-2.69,1.34.9,2.59-1.26,1.26-2.16Z"/></g></g></svg>