<svg xmlns="http://www.w3.org/2000/svg" viewBox="0 0 322.5 297.88"><defs><style>.cls-1{fill:#fff;}.cls-1,.cls-2,.cls-3{stroke:#231815;stroke-width:3px;}.cls-1,.cls-2,.cls-3,.cls-5{stroke-miterlimit:10;}.cls-2{fill:none;}.cls-3,.cls-5{fill:#231815;}.cls-4{fill:#231816;}.cls-5{stroke:#231816;stroke-width:0.5px;}.cls-6{fill:#edafa9;}</style></defs><title>資產 1</title><g id="圖層_2" data-name="圖層 2"><g id="圖層_3" data-name="圖層 3"><rect class="cls-1" x="46.71" y="6.69" width="273.49" height="44.9" transform="translate(-0.97 6.93) rotate(-2.16)"/><rect class="cls-1" x="70.65" y="40.52" width="171.44" height="273.49" transform="translate(-55.89 281.28) rotate(-74.69)"/><line class="cls-2" x1="299" y1="175.08" x2="34.72" y2="102.74"/><polygon class="cls-3" points="256.69 4.54 273.24 48.51 305.82 46.99 289.07 2.72 256.69 4.54"/><polygon class="cls-3" points="190.69 6.56 205.81 50.7 236.92 49.53 221.35 5.18 190.69 6.56"/><polygon class="cls-3" points="120.85 9.16 135.96 53.3 167.07 52.13 151.96 7.86 120.85 9.16"/><polygon class="cls-3" points="54.31 11.58 69.42 55.72 100.52 54.55 85.31 10.37 54.31 11.58"/><polygon class="cls-3" points="234.84 156.06 261.07 117.08 292.43 126.07 265.93 165.29 234.84 156.06"/><polygon class="cls-3" points="171.09 138.88 195.96 99.41 225.96 107.72 200.6 147.28 171.09 138.88"/><polygon class="cls-3" points="103.72 120.24 128.6 80.77 158.6 89.09 133.69 128.69 103.72 120.24"/><polygon class="cls-3" points="39.52 102.55 64.4 63.08 94.4 71.39 69.42 110.88 39.52 102.55"/><path class="cls-4" d="M234.1,182.13c17,3.84,14.61,34.31-3.62,33.71-7.9-.26-14.09-7.38-14.56-15-.56-9.14,8-21.51,18.18-18.7a1.25,1.25,0,0,0,.66-2.41c-10.94-3-20.6,8.63-21.31,18.73-.66,9.3,5.91,18.42,15.35,19.74,22,3.08,26.63-33.81,6-38.47-1.56-.36-2.23,2.05-.66,2.41Z"/><path class="cls-4" d="M179.82,167.09c-1.6,10.12-2.71,20.33-5.65,30.18-.47,1.55,1.91,2.18,2.41.66l.41-.74c1.1-1.16-.66-2.93-1.77-1.77a3.76,3.76,0,0,0-1.05,1.85l2.41.66c2.94-9.84,4-20.06,5.65-30.18.25-1.57-2.16-2.25-2.41-.66Z"/><path class="cls-4" d="M195.27,215.78c-4.67,10.34-17.55,14-27.86,10.49-11.94-4.09-18.74-16.08-20.06-28.09-.17-1.59-2.67-1.6-2.5,0,1.45,13.15,8.81,26,21.89,30.5,11.29,3.83,25.58-.32,30.69-11.64.66-1.46-1.49-2.73-2.16-1.26Z"/><path class="cls-4" d="M125.58,150.57c17,3.85,14.6,34.3-3.63,33.71-7.89-.26-14.09-7.38-14.55-15-.56-9.14,8-21.51,18.18-18.7a1.25,1.25,0,0,0,.66-2.41c-10.94-3-20.6,8.62-21.32,18.73-.65,9.3,5.92,18.42,15.35,19.74,22,3.07,26.64-33.81,6-38.47-1.57-.36-2.24,2.05-.66,2.41Z"/><path class="cls-5" d="M228.42,196.07c-.58,2.11.35,4.2,2.08,4.68s3.59-.86,4.17-3-.35-4.2-2.08-4.67S229,194,228.42,196.07Z"/><path class="cls-5" d="M119.77,164.84c-.57,2.11.36,4.2,2.09,4.68s3.59-.86,4.17-3-.36-4.2-2.08-4.67S120.35,162.73,119.77,164.84Z"/><path class="cls-6" d="M285.42,221c-7.67-.61-20.27.42-25.62,9-7.62,12.85-1.86,32.71,11.62,39.39"/><path class="cls-4" d="M285.42,219.76c-13.23-.9-27,3.31-29.75,17.86-2.38,12.67,3.58,26.78,15.12,32.89,1.42.75,2.68-1.41,1.26-2.16-10.52-5.58-16.12-18.45-14-30.07,2.5-13.49,15.26-16.84,27.34-16,1.6.11,1.6-2.39,0-2.5Z"/><path class="cls-6" d="M24.69,139.94c8.47-3.66,21.37,5.1,26.64,11.77,10,12.44,13.42,32.78.05,44.8-10.87,9.71-30.51,9.19-39.34-2.19"/><path class="cls-4" d="M25,141.14c9.12-3.32,20,4.68,25.43,11.45,6.25,7.78,9.81,18.59,8,28.54-3.64,20.57-32.09,28.65-45.57,12.31-1-1.24-2.79.54-1.77,1.77C25.83,213,56.89,204.09,60.91,181.8c2-10.86-1.81-22.52-8.7-31-6.05-7.43-17.82-15.74-27.85-12.09-1.5.55-.85,3,.66,2.41Z"/></g></g></svg>